<?xml version="1.0" standalone="no"?>
<!DOCTYPE svg PUBLIC "-//W3C//DTD SVG 20010904//EN" "http://www.w3.org/TR/2001/REC-SVG-20010904/DTD/svg10.dtd">
<svg version="1.0" xmlns="http://www.w3.org/2000/svg" width="944.000000pt" height="980.000000pt" viewBox="0 0 944.000000 980.000000" preserveAspectRatio="xMidYMid meet">

    <g transform="translate(0.000000,980.000000) scale(0.100000,-0.100000)" fill="white" stroke="none">
        <path d="M0 4900 l0 -4900 4720 0 4720 0 0 180 0 180 -4540 0 -4540 0 0 4720
0 4720 -180 0 -180 0 0 -4900z" />
        <path d="M8773 7793 c-104 -131 -290 -366 -413 -523 -513 -653 -856 -1077
-948 -1172 l-56 -57 -115 61 c-64 34 -348 185 -631 336 -539 288 -1079 567
-1085 561 -4 -5 -658 -1051 -1237 -1979 -218 -349 -402 -643 -410 -653 -13
-17 -18 -16 -108 17 -115 41 -404 157 -755 301 -344 141 -648 263 -712 286
-39 13 -54 15 -61 6 -32 -41 -1134 -2490 -1166 -2593 -6 -18 6 -26 101 -71
114 -54 209 -90 216 -83 3 5 88 194 552 1235 345 774 467 1036 482 1042 26 10
251 -76 833 -317 347 -143 625 -255 696 -280 l50 -18 629 1007 c986 1577 1001
1601 1033 1601 37 0 294 -127 747 -370 956 -512 1032 -549 1072 -536 10 4 65
66 123 139 564 712 1590 2021 1611 2054 12 20 11 25 -11 49 -49 52 -225 194
-242 194 -3 0 -92 -107 -195 -237z" />
    </g>
</svg>